<svg width="334" height="205" viewBox="0 0 334 205" fill="none" xmlns="http://www.w3.org/2000/svg">
<path d="M10.694 173.018C11.7195 171.544 13.0379 170.365 14.5029 169.628C16.1143 168.744 18.0187 168.302 20.3626 168.302C22.9995 168.302 25.3434 169.039 27.1013 170.513C28.8592 171.986 30.0312 174.197 30.3241 176.85V177.292H37.7953V176.702C37.5023 174.344 36.9164 172.281 35.8909 170.365C34.8654 168.597 33.547 166.976 31.9356 165.797C30.3241 164.47 28.5662 163.586 26.5153 162.996C24.4644 162.407 22.4135 161.965 20.0696 161.965C16.8467 161.965 14.0634 162.554 11.573 163.733C9.08259 164.912 6.88519 166.386 5.27376 168.449C3.51584 170.365 2.1974 172.723 1.31844 175.376C0.43948 178.029 0 180.829 0 183.924C0 186.871 0.43948 189.524 1.31844 192.03C2.1974 194.535 3.51584 196.746 5.27376 198.662C6.88519 200.577 9.08259 202.051 11.4265 203.083C13.7704 204.115 16.5538 204.704 19.4836 204.704C21.8275 204.704 24.1714 204.409 26.2223 203.672C28.2732 202.936 30.1777 201.904 31.7891 200.577C33.4005 199.251 34.7189 197.483 35.7444 195.567C36.7699 193.651 37.3558 191.44 37.6488 188.935V188.345H30.1777V188.787C30.0312 190.261 29.7382 191.588 29.1522 192.767C28.5662 193.946 27.8338 194.977 26.9548 195.861C26.0758 196.746 24.9039 197.335 23.7319 197.777C22.56 198.219 21.0951 198.514 19.6301 198.514C17.5792 198.514 15.8213 198.072 14.3564 197.335C12.8914 196.598 11.573 195.419 10.694 194.093C9.66857 192.767 9.08259 191.145 8.49662 189.377C8.05714 187.608 7.76415 185.692 7.76415 183.924C7.76415 181.861 8.05714 179.945 8.49662 178.029C9.08259 176.113 9.81506 174.492 10.694 173.018Z" fill="#2AF598"/>
<path d="M77.0588 168.449C75.4473 166.534 73.2499 164.912 70.906 163.733C68.4157 162.554 65.4858 161.965 62.2629 161.965C59.0401 161.965 56.1102 162.554 53.6198 163.733C51.1294 164.912 49.0785 166.534 47.4671 168.449C45.8557 170.365 44.5372 172.723 43.8048 175.376C43.0723 177.882 42.6328 180.682 42.6328 183.482C42.6328 186.282 43.0723 188.935 43.8048 191.588C44.5372 194.093 45.8557 196.451 47.4671 198.514C49.0785 200.43 51.2759 202.051 53.6198 203.23C56.1102 204.409 59.0401 204.999 62.2629 204.999C65.4858 204.999 68.4157 204.409 70.906 203.23C73.3964 202.051 75.4473 200.43 77.0588 198.514C78.6702 196.598 79.9886 194.24 80.7211 191.588C81.4536 189.082 81.8931 186.282 81.8931 183.482C81.8931 180.682 81.4536 178.029 80.7211 175.376C79.9886 172.871 78.8167 170.513 77.0588 168.449ZM74.2754 183.482C74.2754 185.398 73.9824 187.314 73.5429 189.082C73.1034 190.851 72.371 192.472 71.3455 193.946C70.3201 195.272 69.1481 196.451 67.6832 197.335C66.2183 198.219 64.3138 198.662 62.2629 198.662C60.212 198.662 58.3076 198.219 56.8427 197.335C55.3777 196.451 54.0593 195.419 53.1803 193.946C52.1549 192.619 51.4224 190.851 50.9829 189.082C50.5435 187.314 50.2505 185.398 50.2505 183.482C50.2505 181.566 50.5435 179.65 50.9829 177.882C51.4224 176.113 52.1549 174.492 53.1803 173.018C54.2058 171.544 55.3777 170.513 56.8427 169.628C58.3076 168.744 60.212 168.302 62.2629 168.302C64.3138 168.302 66.2183 168.744 67.6832 169.628C69.1481 170.513 70.4666 171.692 71.3455 173.018C72.371 174.492 73.1034 176.113 73.5429 177.882C73.9824 179.65 74.2754 181.566 74.2754 183.482Z" fill="#2AF598"/>
<path d="M118.955 166.829C117.637 165.355 116.025 164.323 114.267 163.439C111.923 162.407 109.433 161.965 106.796 161.965C103.72 161.965 100.79 162.555 98.2995 163.734C95.8092 164.913 93.6118 166.386 92.0003 168.45C90.2424 170.366 88.924 172.724 88.045 175.376C87.166 178.029 86.7266 180.829 86.7266 183.924C86.7266 186.872 87.166 189.672 88.045 192.177C88.924 194.683 90.2424 196.893 92.0003 198.809C93.7583 200.725 95.8092 202.199 98.1531 203.231C100.497 204.262 103.28 204.852 106.21 204.852C109.14 204.852 111.923 204.262 114.267 203.083C116.172 202.199 117.637 201.02 118.955 199.546V204.704H126.719V147.228H118.955V166.829V166.829ZM117.93 173.461C118.516 174.492 118.955 175.671 118.955 176.703V188.788C118.955 190.261 118.662 191.588 117.93 192.767C117.344 193.946 116.465 194.978 115.293 195.862C114.267 196.746 112.949 197.336 111.63 197.778C110.312 198.22 108.847 198.515 107.382 198.515C105.185 198.515 103.28 198.072 101.669 197.483C100.057 196.746 98.739 195.714 97.7136 194.388C96.6881 193.062 95.8092 191.588 95.3697 189.819C94.7837 188.051 94.4907 186.135 94.4907 183.924C94.4907 182.008 94.7837 179.945 95.2232 178.029C95.6627 176.113 96.3951 174.492 97.5671 173.018C98.5925 171.545 100.057 170.366 101.669 169.481C103.427 168.597 105.478 168.155 107.968 168.155C109.14 168.155 110.459 168.45 111.777 168.744C113.095 169.187 114.267 169.776 115.439 170.513C116.318 171.545 117.197 172.429 117.93 173.461Z" fill="#2AF598"/>
<path d="M162.754 188.198V188.64C162.607 190.114 162.314 191.44 161.728 192.619C161.142 193.798 160.41 194.83 159.531 195.714C158.652 196.598 157.48 197.188 156.308 197.63C155.136 198.072 153.671 198.367 152.206 198.367C150.448 198.367 148.837 198.072 147.518 197.483C146.2 196.893 145.028 196.156 144.149 195.125C143.27 194.093 142.391 192.914 141.805 191.588C141.219 190.409 140.926 189.082 140.633 187.756L170.371 176.85V176.408C170.078 174.05 169.493 171.986 168.467 170.218C167.442 168.449 166.123 166.828 164.512 165.649C162.9 164.47 161.142 163.439 159.091 162.849C157.041 162.26 154.99 161.965 152.646 161.965C149.423 161.965 146.64 162.554 144.149 163.733C141.659 164.912 139.608 166.386 137.85 168.449C136.092 170.365 134.92 172.723 134.041 175.376C133.162 178.029 132.723 180.829 132.723 183.924C132.723 186.871 133.162 189.524 134.041 192.03C134.92 194.535 136.238 196.746 137.85 198.662C139.461 200.577 141.512 202.051 144.003 203.083C146.347 204.115 149.13 204.704 152.06 204.704C154.404 204.704 156.748 204.409 158.798 203.672C160.849 202.936 162.754 201.904 164.365 200.577C165.977 199.251 167.295 197.483 168.321 195.567C169.346 193.651 169.932 191.44 170.225 188.935V188.345H162.754V188.198ZM162.021 174.639L140.34 182.598V182.303C140.34 180.387 140.633 178.618 141.219 176.85C141.805 175.229 142.538 173.608 143.563 172.429C144.589 171.102 145.761 170.218 147.372 169.334C148.837 168.597 150.741 168.155 152.792 168.155C155.136 168.155 157.187 168.744 158.798 169.923C160.263 171.25 161.435 172.723 162.021 174.639Z" fill="#2AF598"/>
<path d="M182.827 165.061C181.362 166.093 180.19 167.272 179.311 168.893V162.261H175.941V204.116H179.311V181.42C179.311 179.356 179.604 176.851 180.19 174.935C180.776 173.167 181.655 171.545 182.68 170.072C183.706 168.745 185.17 167.566 186.782 166.829C188.393 166.093 190.298 165.65 192.495 165.65H192.935L195.718 162.261H192.495C188.686 162.261 185.463 163.145 182.827 165.061Z" fill="#2AF598"/>
<path d="M290.791 165.061C289.327 166.093 288.155 167.272 287.276 168.893V162.261H283.906V204.41H287.276V181.567C287.276 179.504 287.569 176.998 288.155 175.083C288.741 173.314 289.62 171.693 290.645 170.219C291.67 168.893 293.135 167.714 294.747 166.977C296.358 166.24 298.263 165.798 300.46 165.798H300.9L303.683 162.408H300.46C296.651 162.261 293.575 163.145 290.791 165.061Z" fill="#2AF598"/>
<path d="M198.356 141.776C197.477 141.776 196.891 142.071 196.305 142.66C195.719 143.25 195.426 143.987 195.426 144.723C195.426 145.608 195.719 146.197 196.305 146.787C196.891 147.376 197.623 147.671 198.356 147.671C199.235 147.671 199.821 147.376 200.407 146.787C200.993 146.197 201.286 145.46 201.286 144.723C201.286 143.839 200.993 143.25 200.407 142.66C199.821 142.071 199.088 141.776 198.356 141.776Z" fill="#2AF598"/>
<path d="M199.963 162.261H196.594V204.116H199.963V162.261Z" fill="#2AF598"/>
<path d="M236.002 167.271C234.83 165.945 233.512 164.766 231.9 163.882C229.41 162.555 226.626 161.818 223.696 161.818C220.474 161.818 217.69 162.408 215.2 163.587C212.856 164.766 210.805 166.387 209.34 168.45C207.729 170.514 206.703 172.872 205.824 175.524C205.092 178.177 204.652 180.977 204.652 183.778C204.652 186.578 205.092 189.083 205.824 191.589C206.557 194.094 207.729 196.157 209.34 198.073C210.805 199.989 212.709 201.463 215.053 202.494C217.251 203.526 219.888 204.116 222.818 204.116C226.333 204.116 229.263 203.379 231.9 201.757C233.512 200.873 234.83 199.547 236.002 198.22V203.821H239.371V147.523H236.002V167.271ZM222.964 201.021C220.62 201.021 218.423 200.578 216.665 199.694C214.907 198.81 213.295 197.484 212.123 196.01C210.952 194.389 209.926 192.62 209.34 190.557C208.754 188.494 208.315 186.283 208.315 184.072C208.315 181.862 208.608 179.651 209.194 177.44C209.78 175.23 210.659 173.166 211.831 171.398C213.002 169.629 214.614 168.156 216.518 167.124C218.423 166.092 220.913 165.503 223.843 165.503C225.308 165.503 226.773 165.798 228.238 166.24C229.703 166.829 231.021 167.566 232.193 168.45C233.365 169.335 234.244 170.514 234.976 171.693C235.709 172.872 236.002 174.198 236.002 175.524V189.378C236.002 191.146 235.709 192.768 234.976 194.241C234.244 195.715 233.365 196.894 232.193 197.926C231.021 198.957 229.556 199.694 227.945 200.284C226.48 200.726 224.722 201.021 222.964 201.021Z" fill="#2AF598"/>
<path d="M275.557 189.231C275.41 191 274.971 192.768 274.238 194.095C273.506 195.569 272.627 196.748 271.455 197.779C270.283 198.811 268.964 199.548 267.353 200.137C265.888 200.727 264.13 201.022 262.372 201.022C260.175 201.022 258.27 200.579 256.659 199.843C255.048 199.106 253.583 198.074 252.411 196.748C251.239 195.421 250.213 193.948 249.481 192.326C248.895 190.853 248.309 189.231 248.016 187.61L278.926 176.262H279.072L278.926 175.525C278.633 173.462 278.047 171.546 277.168 169.925C276.289 168.304 275.117 166.83 273.799 165.651C272.48 164.472 270.869 163.588 268.964 162.998C267.06 162.409 265.302 161.967 263.251 161.967C260.028 161.967 257.245 162.556 254.755 163.735C252.411 164.914 250.36 166.535 248.895 168.599C247.283 170.662 246.258 173.02 245.379 175.673C244.646 178.326 244.207 181.126 244.207 184.073C244.207 186.726 244.646 189.379 245.379 191.737C246.111 194.242 247.283 196.306 248.748 198.221C250.213 200.137 252.118 201.611 254.315 202.79C256.512 203.969 259.149 204.411 262.079 204.411C264.277 204.411 266.474 204.116 268.378 203.38C270.283 202.643 272.041 201.611 273.506 200.432C274.971 199.106 276.143 197.485 277.022 195.716C277.901 193.947 278.486 191.737 278.633 189.526L278.779 188.495H275.557V189.231ZM263.398 165.356C266.474 165.356 269.111 166.241 271.308 167.862C273.213 169.336 274.531 171.399 275.264 174.052L247.723 184.073C247.723 181.568 248.016 179.21 248.602 176.852C249.188 174.641 250.213 172.578 251.385 170.957C252.704 169.336 254.315 167.862 256.219 166.978C258.27 165.946 260.614 165.356 263.398 165.356Z" fill="#2AF598"/>
<path d="M332.1 187.61C331.367 186.284 330.195 185.252 329.023 184.515C327.851 183.779 326.386 183.042 324.775 182.6C323.31 182.157 321.845 181.715 320.234 181.273C318.769 180.978 317.157 180.536 315.546 180.241C313.934 179.947 312.469 179.505 311.151 178.768C309.833 178.178 308.807 177.441 307.928 176.41C307.196 175.525 306.756 174.199 306.756 172.578C306.756 172.431 306.756 171.988 307.049 170.957C307.196 170.22 307.635 169.483 308.221 168.599C308.807 167.714 309.979 166.978 311.297 166.388C312.762 165.651 314.667 165.356 317.304 165.356C319.062 165.356 320.673 165.504 322.138 165.946C323.456 166.241 324.775 166.83 325.654 167.714C326.679 168.451 327.412 169.483 327.851 170.662C328.437 171.841 328.73 173.462 328.73 175.231V176.262H332.1V175.231C332.1 170.662 330.781 167.125 327.998 165.062C325.361 162.998 321.698 161.967 317.157 161.967C314.667 161.967 312.469 162.262 310.711 162.998C308.954 163.588 307.489 164.472 306.317 165.504C305.145 166.535 304.266 167.714 303.826 169.041C303.387 170.367 303.094 171.546 303.094 172.725C303.094 174.936 303.533 176.852 304.412 178.178C305.291 179.505 306.463 180.536 307.782 181.42C309.1 182.157 310.711 182.747 312.323 183.189C313.934 183.631 315.546 183.926 317.011 184.368C318.622 184.81 320.234 185.105 321.845 185.547C323.31 185.989 324.775 186.431 325.8 187.021C326.826 187.61 327.851 188.347 328.437 189.379C329.023 190.263 329.463 191.442 329.463 192.916C329.463 194.39 329.17 195.569 328.437 196.6C327.705 197.632 326.826 198.516 325.8 199.106C324.628 199.843 323.456 200.285 322.138 200.579C320.673 200.874 319.355 201.022 318.036 201.022C313.788 201.022 310.419 199.99 308.221 198.221C306.024 196.306 304.852 193.358 304.852 189.379V188.347H301.922V189.379C301.922 194.537 303.387 198.369 306.17 200.874C308.954 203.232 313.055 204.559 318.476 204.559C320.234 204.559 321.991 204.411 323.749 203.969C325.507 203.527 327.119 202.937 328.584 201.906C330.049 201.022 331.221 199.695 332.1 198.221C332.979 196.748 333.418 194.832 333.418 192.768C333.271 190.705 332.832 188.937 332.1 187.61Z" fill="#2AF598"/>
<path d="M215.196 102.722C220.698 102.722 225.157 98.2351 225.157 92.7003C225.157 87.1655 220.698 82.6787 215.196 82.6787C209.694 82.6787 205.234 87.1655 205.234 92.7003C205.234 98.2351 209.694 102.722 215.196 102.722Z" fill="#2AF598"/>
<path d="M171.544 136.028C162.754 136.028 155.723 128.807 155.723 120.111C155.723 111.416 162.754 104.047 171.544 104.047C180.334 104.047 187.365 111.269 187.365 119.964C187.365 128.659 180.334 136.028 171.544 136.028ZM171.544 111.858C167.149 111.858 163.487 115.543 163.487 119.964C163.487 124.385 167.149 128.07 171.544 128.07C175.939 128.07 179.601 124.385 179.601 119.964C179.601 115.543 175.939 111.858 171.544 111.858Z" fill="#2AF598"/>
<path d="M214.758 26.8225C210.803 26.8225 207.141 28.2963 204.357 30.8017L183.116 18.8642C183.262 17.8325 183.409 16.9483 183.409 15.9167C183.409 7.07407 176.231 0 167.588 0C158.945 0 151.766 7.22144 151.766 15.9167C151.766 24.6119 158.945 31.8333 167.588 31.8333C172.568 31.8333 176.963 29.4753 179.893 25.9383L199.963 37.2862C199.377 39.0548 198.937 40.8233 198.937 42.8865C198.937 45.2446 199.523 47.6026 200.402 49.6659L183.116 60.1296C180.186 57.0347 176.084 55.1188 171.543 55.1188C166.562 55.1188 162.021 57.4768 159.091 61.1612L140.047 49.0764C140.193 48.3395 140.193 47.6026 140.193 46.8657C140.193 38.0231 133.015 30.9491 124.372 30.9491C115.729 30.9491 108.551 38.1705 108.551 46.8657C108.551 54.3819 113.678 60.5717 120.563 62.3402V78.9938C113.678 80.7623 108.551 86.9521 108.551 94.4683C108.551 103.311 115.729 110.385 124.372 110.385C133.015 110.385 140.193 103.016 140.193 94.1735C140.193 86.6573 135.066 80.4675 128.181 78.699V62.1929C131.697 61.3086 134.773 59.0979 136.971 56.2978L155.868 68.2353C155.722 69.1196 155.575 70.0038 155.575 70.8881C155.575 79.7307 162.753 86.8047 171.396 86.8047C180.186 86.8047 187.218 79.5833 187.218 70.8881C187.218 69.4143 187.071 68.0879 186.632 66.7615L205.09 55.5609C207.727 57.4768 210.95 58.6558 214.466 58.6558C223.255 58.6558 230.287 51.4344 230.287 42.7392C230.287 34.044 223.402 26.8225 214.758 26.8225ZM167.441 23.875C163.046 23.875 159.384 20.1906 159.384 15.7693C159.384 11.348 163.046 7.66357 167.441 7.66357C171.836 7.66357 175.498 11.348 175.498 15.7693C175.498 20.3379 171.982 23.875 167.441 23.875ZM132.429 94.1735C132.429 98.5948 128.767 102.279 124.372 102.279C119.977 102.279 116.315 98.5948 116.315 94.1735C116.315 89.7522 119.977 86.0678 124.372 86.0678C128.767 86.0678 132.429 89.7522 132.429 94.1735ZM124.226 54.824C119.831 54.824 116.168 51.1396 116.168 46.7183C116.168 42.297 119.831 38.6126 124.226 38.6126C128.62 38.6126 132.283 42.297 132.283 46.7183C132.283 51.1396 128.767 54.824 124.226 54.824ZM171.543 78.9938C167.148 78.9938 163.486 75.3094 163.486 70.8881C163.486 66.4668 167.148 62.7824 171.543 62.7824C175.938 62.7824 179.6 66.4668 179.6 70.8881C179.6 75.3094 175.938 78.9938 171.543 78.9938ZM214.758 50.8449C210.364 50.8449 206.701 47.1605 206.701 42.7392C206.701 38.3179 210.364 34.6335 214.758 34.6335C219.153 34.6335 222.816 38.3179 222.816 42.7392C222.816 47.1605 219.153 50.8449 214.758 50.8449Z" fill="#2AF598"/>
</svg>
